<svg xmlns="http://www.w3.org/2000/svg" xmlns:xlink="http://www.w3.org/1999/xlink" width="190.57000000000005" height="69.14800000000001"><path fill="#000" d="M23.07 54.75L31.39 54.75L16.82 33.22L30.03 13.75L22.77 13.75L10.09 32.63L10.09 13.75L2.95 13.75L2.95 54.75L10.09 54.75L10.09 35.52ZM44.19 24.48C36.46 24.48 31.09 29.97 31.09 39.94C31.09 49.86 36.46 55.34 44.19 55.34C51.92 55.34 57.29 49.86 57.29 39.88C57.29 29.97 51.92 24.48 44.19 24.48ZM44.19 49.80C40.30 49.80 38.35 46.79 38.35 39.94C38.35 33.04 40.30 30.03 44.19 30.03C48.09 30.03 50.03 33.04 50.03 39.88C50.03 46.79 48.09 49.80 44.19 49.80ZM78.41 25.07L78.41 36.82L69.03 36.82L69.03 25.07L62.01 25.07L62.01 54.75L69.03 54.75L69.03 42.36L78.41 42.36L78.41 54.75L85.43 54.75L85.43 25.07ZM113.10 30.62L113.10 25.07L89.56 25.07L89.56 30.62L97.82 30.62L97.82 54.75L104.84 54.75L104.84 30.62ZM138.18 52.75L138.18 47.02C136.00 48.50 132.34 49.80 128.92 49.80C123.78 49.80 121.84 47.38 121.54 42.42L138.47 42.42L138.47 38.70C138.47 28.38 133.93 24.48 126.91 24.48C118.35 24.48 114.28 31.03 114.28 40.00C114.28 50.33 119.36 55.34 128.33 55.34C132.81 55.34 136.11 54.16 138.18 52.75ZM126.79 30.03C130.27 30.03 131.33 32.92 131.33 36.64L131.33 37.23L121.54 37.23C121.72 32.51 123.43 30.03 126.79 30.03ZM155.94 55.34C159.18 55.34 161.48 54.75 163.19 53.51L163.19 47.79C161.42 49.03 159.30 49.80 156.35 49.80C151.34 49.80 149.27 45.90 149.27 39.77C149.27 33.34 151.81 30.03 156.41 30.03C159.12 30.03 161.78 30.98 163.19 31.86L163.19 25.90C161.72 25.07 159.12 24.48 155.64 24.48C146.67 24.48 142.01 30.92 142.01 39.94C142.01 49.86 146.56 55.34 155.94 55.34ZM189.39 30.62L189.39 25.07L165.85 25.07L165.85 30.62L174.11 30.62L174.11 54.75L181.13 54.75L181.13 30.62Z"/></svg>