<svg xmlns="http://www.w3.org/2000/svg" xmlns:xlink="http://www.w3.org/1999/xlink" width="69.20700000000001" height="69.14800000000001"><rect width="35.3627760252366" height="42.80757097791798" x="16.750788643533124" y="13.02839116719243" fill="#fff"/><path fill="#fc3f1d" d="M34.63-0.18C15.52-0.18 0 15.28 0 34.28C0 53.34 15.52 68.73 34.63 68.73C53.69 68.73 69.21 53.34 69.21 34.28C69.21 15.28 53.69-0.18 34.63-0.18ZM39.12 54.75L39.12 19.29L35.93 19.29C30.09 19.29 27.02 22.24 27.02 26.61C27.02 31.57 29.15 33.87 33.51 36.82L37.11 39.23L26.73 54.75L19.00 54.75L28.32 40.89C22.95 37.05 19.94 33.34 19.94 27.02C19.94 19.12 25.43 13.75 35.87 13.75L46.26 13.75L46.26 54.75Z"/><path fill="#000" d=""/></svg>